HIERARCHY
ROOT root
{
	OFFSET 0.000000 0.000000 0.000000
	CHANNELS 6 Xposition Yposition Zposition Zrotation Yrotation Xrotation
	JOINT lhip
	{
		OFFSET 0.058581 -0.082280 -0.017664
		CHANNELS 3 Zrotation Yrotation Xrotation
		JOINT lknee
		{
			OFFSET 0.043451 -0.386469 0.008037
			CHANNELS 3 Zrotation Yrotation Xrotation
			JOINT lankle
			{
				OFFSET -0.014790 -0.426874 -0.037428
				CHANNELS 3 Zrotation Yrotation Xrotation
				JOINT ltoe
				{
					OFFSET 0.041054 -0.060286 0.122042
					CHANNELS 3 Zrotation Yrotation Xrotation
					End Site
					{
						OFFSET 0.000000 0.000000 0.000000
					}
				}
			}
		}
	}
	JOINT rhip
	{
		OFFSET -0.060310 -0.090513 -0.013543
		CHANNELS 3 Zrotation Yrotation Xrotation
		JOINT rknee
		{
			OFFSET -0.043257 -0.383688 -0.004843
			CHANNELS 3 Zrotation Yrotation Xrotation
			JOINT rankle
			{
				OFFSET 0.019056 -0.420046 -0.034562
				CHANNELS 3 Zrotation Yrotation Xrotation
				JOINT rtoe
				{
					OFFSET -0.034840 -0.062106 0.130323
					CHANNELS 3 Zrotation Yrotation Xrotation
					End Site
					{
						OFFSET 0.000000 0.000000 0.000000
					}
				}
			}
		}
	}
	JOINT lowerback
	{
		OFFSET 0.004439 0.124404 -0.038385
		CHANNELS 3 Zrotation Yrotation Xrotation
		JOINT upperback
		{
			OFFSET 0.004488 0.137956 0.026820
			CHANNELS 3 Zrotation Yrotation Xrotation
			JOINT chest
			{
				OFFSET -0.002265 0.056032 0.002855
				CHANNELS 3 Zrotation Yrotation Xrotation
				JOINT lowerneck
				{
					OFFSET -0.013390 0.211636 -0.033468
					CHANNELS 3 Zrotation Yrotation Xrotation
					JOINT upperneck
					{
						OFFSET 0.010113 0.088937 0.050410
						CHANNELS 3 Zrotation Yrotation Xrotation
						End Site
						{
							OFFSET 0.000000 0.000000 0.000000
						}
					}
				}
				JOINT lclavicle
				{
					OFFSET 0.071702 0.114000 -0.018898
					CHANNELS 3 Zrotation Yrotation Xrotation
					JOINT lshoulder
					{
						OFFSET 0.122921 0.045205 -0.019046
						CHANNELS 3 Zrotation Yrotation Xrotation
						JOINT lelbow
						{
							OFFSET 0.255332 -0.015649 -0.022946
							CHANNELS 3 Zrotation Yrotation Xrotation
							JOINT lwrist
							{
								OFFSET 0.265709 0.012698 -0.007375
								CHANNELS 3 Zrotation Yrotation Xrotation
								End Site
								{
									OFFSET 0.000000 0.000000 0.000000
								}
							}
						}
					}
				}
				JOINT rclavicle
				{
					OFFSET -0.082954 0.112472 -0.023707
					CHANNELS 3 Zrotation Yrotation Xrotation
					JOINT rshoulder
					{
						OFFSET -0.113228 0.046853 -0.008472
						CHANNELS 3 Zrotation Yrotation Xrotation
						JOINT relbow
						{
							OFFSET -0.260127 -0.014369 -0.031269
							CHANNELS 3 Zrotation Yrotation Xrotation
							JOINT rwrist
							{
								OFFSET -0.269108 0.006794 -0.006027
								CHANNELS 3 Zrotation Yrotation Xrotation
								End Site
								{
									OFFSET 0.000000 0.000000 0.000000
								}
							}
						}
					}
				}
			}
		}
	}
}
MOTION
Frames: 16
Frame Time: 0.033333
0.954161 1.347947 0.975949 35.682769 7.037619 91.250210 4.196697 -0.802527 -16.425063 -5.506751 2.465012 42.741475 6.690695 14.082030 -25.454345 0.000000 -0.000000 0.000000 7.124643 2.219268 -13.413701 3.963413 -2.039272 21.247093 -2.791776 -8.941156 -14.754364 0.000000 -0.000000 0.000000 4.514412 0.183058 5.594098 2.245877 -1.252341 -2.542954 -2.549678 0.778402 -0.616515 4.081421 -7.753514 -5.699851 4.643349 -11.142768 1.286535 -34.073633 -1.938140 6.314102 -52.517452 -3.077437 10.358649 11.520967 -25.547975 1.421157 7.596069 -11.322209 -5.833233 27.189138 0.919197 5.561206 55.705200 -5.007118 6.636810 -15.415853 28.857775 -1.880111 1.497808 11.450573 -12.186091 
0.961488 1.346149 0.975081 32.219114 6.925014 90.690920 5.251186 -2.224412 -20.278233 -7.367229 1.580168 50.164481 5.774790 10.856818 -20.783881 0.000000 -0.000000 0.000000 7.018652 1.620576 -12.454639 4.199916 0.415717 20.753977 -3.868222 -7.886802 -14.732960 0.000000 -0.000000 0.000000 5.105911 0.442551 6.035520 2.497375 -1.499192 -2.711190 -2.352793 0.894718 -0.723917 3.751743 -6.752524 -5.540651 4.284176 -9.015745 1.618287 -33.954704 -1.422276 6.381465 -54.412758 -2.660263 10.429978 12.622674 -26.480987 0.885742 9.781012 -9.300169 -9.346136 26.961270 1.631473 5.743460 55.989012 -4.257856 6.556515 -16.917700 27.408161 -3.832602 -1.619074 10.288359 -14.173352 
0.969309 1.345099 0.974157 28.448069 6.707798 90.443409 6.374141 -3.588358 -23.285508 -9.667450 -0.721243 54.587859 5.893209 7.666651 -18.970210 0.000000 -0.000000 0.000000 6.816501 1.039503 -12.763051 4.422674 3.475557 21.817932 -4.040890 -6.946408 -15.050726 0.000000 -0.000000 0.000000 5.516572 0.935199 5.884016 2.862040 -1.558714 -2.515025 -2.370595 0.765075 -0.682051 3.774194 -5.453878 -5.729767 3.910918 -7.357166 2.304410 -34.160802 -1.004439 6.303915 -55.272923 -2.351376 10.805003 12.767814 -27.200357 0.340181 11.510276 -8.040903 -11.405955 27.441854 1.503732 5.664330 55.408772 -3.040076 6.436690 -17.994661 26.607216 -6.564400 -3.828552 9.610284 -14.997898 
0.981013 1.342665 0.974544 22.798540 6.261769 89.932497 7.323596 -4.984577 -24.381492 -10.690297 -5.159616 55.253014 6.047070 7.431612 -21.063246 0.000000 -0.000000 0.000000 6.292340 1.787041 -12.919291 4.559266 7.073310 22.973854 -3.643987 -5.993144 -15.460670 0.000000 -0.000000 0.000000 5.604765 1.398471 5.913450 3.126466 -1.264886 -2.474873 -2.225555 0.579654 -0.635702 4.235036 -3.688201 -5.341198 3.436799 -5.597450 3.126916 -34.467773 -0.936640 6.727026 -55.712036 -1.650678 11.594905 12.506832 -27.731768 0.594570 13.183248 -7.559987 -12.658149 28.194824 1.456626 5.399485 54.239520 -1.991685 6.701878 -18.330440 26.768114 -8.853547 -6.550364 9.209445 -16.794669 
0.989264 1.340503 0.975482 19.041877 5.884966 89.450110 7.698723 -6.056972 -23.605118 -10.154256 -8.599846 53.503709 6.623216 8.692805 -23.126475 0.000000 -0.000000 0.000000 5.669085 2.831879 -12.456266 4.679907 8.951674 23.006847 -3.111707 -5.380803 -15.462499 0.000000 -0.000000 0.000000 5.592458 1.481310 6.095257 3.132347 -1.026807 -2.537373 -2.168464 0.602078 -0.569463 4.581979 -2.637863 -4.896686 3.178065 -4.867933 3.679251 -34.521891 -0.953838 6.980345 -55.917825 -1.259935 12.067028 12.178302 -27.636478 1.242026 13.831118 -7.720153 -12.433501 28.473049 1.647026 5.268282 53.754140 -1.605983 6.989942 -18.295002 27.258832 -9.556241 -7.799611 9.195996 -17.649326 
1.001482 1.336837 0.975864 14.045623 5.587551 90.181030 8.553490 -7.691811 -23.208508 -8.117811 -13.397188 49.758743 7.597941 9.360294 -25.682408 0.000000 -0.000000 0.000000 4.691845 4.772684 -13.025006 5.802774 12.655134 22.572776 -2.934806 -6.767473 -15.035002 0.000000 -0.000000 0.000000 5.995798 1.199800 4.387873 2.564295 -0.929046 -2.897558 -1.672973 0.745628 -0.279618 3.120339 -3.837769 -3.339431 4.696632 -1.704162 5.015739 -34.081485 -2.329601 8.210310 -57.303005 0.287950 8.397466 11.159690 -27.728736 2.383767 16.028104 -9.662792 -8.729802 27.416825 4.073602 7.277081 54.702621 -1.903900 3.331884 -17.187546 29.144654 -9.755731 -7.037865 10.530794 -17.490524 
1.013581 1.333271 0.976221 9.057547 4.998666 90.049914 8.922133 -9.426064 -20.534532 -7.072911 -20.094114 44.560057 7.527047 9.226984 -27.653036 0.000000 -0.000000 0.000000 3.773181 5.420028 -13.121340 5.804328 15.548192 22.806824 -2.025464 -5.527822 -15.123514 0.000000 -0.000000 0.000000 6.093186 0.838775 4.114140 2.152897 -0.747015 -2.990039 -1.835945 0.811999 -0.450984 3.263904 -3.133951 -1.993876 4.629357 -1.324660 5.549642 -33.301673 -1.815038 8.097105 -57.646091 0.715534 8.476084 10.374520 -27.263876 2.629921 17.168610 -9.328547 -8.611935 26.723372 4.230026 6.766616 55.633417 -1.551963 4.032875 -16.242171 29.651714 -9.341920 -7.718601 10.941909 -16.076195 
1.026675 1.330008 0.975848 4.100456 4.793754 90.163768 9.342551 -11.742376 -17.538049 -6.570334 -28.124089 39.889028 6.774132 8.658911 -29.012033 0.000000 -0.000000 0.000000 3.000473 6.261014 -13.694358 5.991001 18.070727 23.160407 -1.285025 -4.136078 -15.298322 0.000000 -0.000000 0.000000 5.950068 0.720483 3.512351 2.514932 -0.604589 -2.575370 -1.775984 0.709876 -0.770795 3.774877 -1.900090 -1.729531 3.794404 -2.762527 6.772735 -33.065835 -1.368890 8.256168 -57.911772 0.908435 8.974738 10.363752 -27.125656 2.850021 16.809122 -9.336770 -9.512839 26.902058 4.237989 7.505679 54.942947 -1.482449 4.781596 -16.043880 31.857676 -6.827659 -7.126270 11.098228 -17.330924 
1.040674 1.326306 0.977501 -1.074605 4.741363 89.900168 9.564991 -14.689555 -13.895079 -6.314174 -35.285496 36.361643 5.801347 8.039257 -30.601843 0.000000 -0.000000 0.000000 2.280225 7.528162 -13.742364 6.187125 20.377984 22.953703 -0.421381 -2.802061 -15.241661 0.000000 -0.000000 0.000000 6.058333 0.384164 2.959200 2.687926 -0.473784 -1.761114 -1.897063 0.592916 -1.220627 4.474352 -1.385040 -1.410941 3.010915 -4.211797 8.021182 -32.781745 -1.049360 8.231252 -57.886805 1.165616 9.562464 10.522002 -26.662556 2.513631 15.861529 -10.153327 -9.138804 27.085676 4.305772 7.063584 54.322974 -1.598363 5.610295 -15.177633 32.762575 -5.009682 -5.767742 11.803549 -16.385079 
1.059926 1.321527 0.978207 -7.736040 4.918668 89.546027 10.036948 -17.836457 -9.685212 -6.347550 -40.002653 32.670109 4.314819 7.181460 -33.619311 0.000000 -0.000000 0.000000 1.482349 9.582755 -13.819613 6.284626 23.271704 22.319468 0.970219 -1.323595 -14.918656 0.000000 -0.000000 0.000000 5.933845 0.073982 2.159115 3.245449 -0.417194 -0.379314 -1.877867 0.463715 -1.677567 5.456798 -1.089276 -1.252814 2.067341 -6.504830 9.381092 -32.308883 -1.123320 8.200726 -58.130931 1.160493 10.533075 10.999568 -25.649243 2.170903 14.408311 -11.509285 -8.223763 27.363380 4.280787 6.395676 53.131778 -1.563487 6.743693 -14.820697 33.642686 -3.073620 -2.712360 12.531689 -15.075409 
1.076715 1.318556 0.977625 -13.067344 5.078456 89.451684 10.337177 -17.334810 -7.776041 -6.121859 -38.288954 30.077532 4.174722 7.025327 -35.877582 0.000000 -0.000000 0.000000 0.876420 11.129867 -14.388331 6.142302 25.788477 21.890897 2.251961 -0.039932 -14.500631 0.000000 -0.000000 0.000000 5.703044 -0.333519 1.793653 3.649908 -0.466490 0.162996 -1.850396 0.423822 -1.844771 6.192913 -1.264121 -1.020990 1.652497 -8.193630 10.229687 -32.020592 -1.307303 8.184370 -57.936294 1.088949 10.897537 10.896170 -24.759245 2.520804 13.663912 -12.639960 -6.802051 27.731580 4.194947 6.017303 52.206296 -1.164754 7.077040 -14.032834 33.982552 -2.366510 -2.961895 12.783263 -15.180874 
1.094882 1.316928 0.976109 -18.086209 4.956004 89.657827 10.303459 -14.181443 -6.473558 -5.488121 -34.712304 26.403944 5.270659 6.917910 -37.184519 0.000000 -0.000000 0.000000 -0.029127 12.041821 -15.534972 5.839481 28.729803 21.453866 3.608274 1.200540 -13.837380 0.000000 -0.000000 0.000000 5.228735 -0.979366 1.454998 3.645168 -0.620397 0.393574 -1.761753 0.328786 -1.946626 6.348853 -2.909081 0.126257 2.237339 -8.544824 10.050606 -31.736232 -1.695019 8.417703 -56.931057 0.905369 10.828746 9.738744 -24.177710 3.269645 13.699362 -13.392306 -5.150152 27.580897 4.305274 5.279328 52.492200 -0.378078 7.501982 -13.916079 32.783430 -4.475462 -2.907415 13.028724 -12.576900 
1.115627 1.316101 0.973456 -22.362707 4.527710 90.825378 9.492025 -9.758917 -6.868521 -5.251228 -33.063382 23.512633 7.220135 6.529595 -37.286291 0.000000 -0.000000 0.000000 -1.472982 11.766739 -18.306778 5.505879 31.274006 21.304059 5.053695 3.200266 -13.162135 0.000000 -0.000000 0.000000 3.769291 -1.001883 0.712074 4.447001 -1.094958 -0.072017 -1.437020 -0.063769 -1.306881 6.990981 -3.030009 -0.212102 1.935245 -11.017311 10.514791 -31.597554 -2.121924 9.096626 -55.969992 -0.178820 11.219138 8.585652 -24.143640 5.272259 14.259189 -13.483842 -5.441134 28.698377 3.615902 6.195102 50.781116 1.076525 7.094834 -14.732247 33.356694 -4.753260 -3.865660 12.491006 -14.628237 
1.137180 1.317638 0.970827 -26.475207 3.617800 92.268023 7.643809 -6.066351 -8.408545 -5.385131 -32.353056 22.380853 8.498579 6.350877 -36.135049 0.000000 -0.000000 0.000000 -3.185905 11.112555 -21.521392 4.823908 33.630325 20.908949 6.500837 5.080513 -12.056588 0.000000 -0.000000 0.000000 1.965517 -1.030550 0.337255 4.637933 -1.658546 -0.892486 -1.043993 -0.352930 -0.711604 7.101132 -4.126639 -0.019383 2.809210 -12.393341 10.036784 -30.730068 -2.844024 9.613149 -55.094232 -1.098306 11.250829 7.394690 -24.543933 6.411519 15.457649 -13.334600 -5.237298 28.734413 3.470741 5.865228 51.427261 2.040860 7.018050 -16.277920 32.406558 -7.924293 -4.529802 11.916967 -14.732812 
1.158586 1.321244 0.968512 -30.969332 2.566676 93.699588 6.019778 -4.699326 -10.225161 -5.903143 -29.832174 21.760916 9.244090 6.781427 -35.023534 0.000000 -0.000000 0.000000 -4.626914 10.621234 -24.879880 4.061488 34.912720 20.870201 7.246825 6.325535 -10.883500 0.000000 -0.000000 0.000000 0.261733 -0.882061 0.420505 4.656341 -1.863135 -1.986398 -1.033352 -0.407465 -0.135181 7.619006 -4.321229 0.200784 3.525778 -14.309008 8.978094 -29.299729 -3.249199 10.197119 -54.177648 -2.041349 11.422412 6.723213 -25.836314 7.433350 15.662289 -13.080577 -6.361478 28.673061 3.004932 6.260789 52.964599 3.455110 6.331457 -17.978247 31.603917 -10.610014 -5.960417 10.614906 -17.143393 
1.177993 1.324418 0.967799 -35.437268 1.655928 94.153922 4.000032 -3.224260 -10.575113 -5.668777 -27.959387 20.870265 11.000691 8.238764 -34.522002 0.000000 -0.000000 0.000000 -4.954713 9.428637 -27.483586 4.156789 33.838073 22.795261 7.039854 4.512126 -10.138121 0.000000 -0.000000 0.000000 -0.652297 -0.993123 1.035751 3.892917 -1.590741 -2.600094 -1.175898 -0.024681 0.277988 7.471044 -5.269797 0.495298 4.765090 -14.945280 7.967782 -27.953588 -4.059721 10.559361 -52.345787 -2.410514 10.791056 5.730632 -27.574416 7.429596 16.432619 -12.832570 -6.500812 28.058934 3.431814 5.679757 55.710784 3.206055 4.597333 -18.910992 30.451816 -14.949195 -7.013166 9.705617 -17.854662 
